<svg version="1.2" xmlns="http://www.w3.org/2000/svg" viewBox="0 0 652 199" width="652" height="199"><style>.a{fill:#e74d3d}.b{fill:#444}</style><path class="a" d="m126.3 49.7l-56.1 32.3c-3 1.7-5 4.9-5 8.3v63.3c-2.4 0-3.2-0.4-4.7-1.3l-34.5-19.5c-3-1.7-5.5-4.9-5.5-8.4v-59.1c0-3.4 2.4-6.6 5.4-8.4l51.7-29.6c3-1.7 7-1.7 9.9 0l3.8 2.2-56.1 32.5c-3 1.7-4.6 4.9-4.6 8.4l-0.6 54.6 8.6 5v-54.7c0-3.4 2-6.6 5-8.4l56.2-32.4 8.9 5-56.1 32.5c-3 1.7-4.7 4.9-4.7 8.4l-0.5 54.7 8 5v-54.7c0-3.4 2.3-6.6 5.3-8.3l56.5-32.4z"/><path class="b" d="m117.9 64.7l8.9-5v54.7c0 3.5-2.1 6.7-5.1 8.4l-51.5 29.6c-1.5 0.9-3.8 1.3-5 1.3v-28.5l30.3-17.5c3-1.7 4.7-4.9 4.7-8.3v-24.6l8.5-5v34.6c0 3.4-1.8 6.6-4.8 8.3l-38.7 22.3v10.2l47.8-27.5c3-1.8 4.8-4.9 4.8-8.4z"/><path class="b" d="m207.7 85.9c2.7 0.5 4.9 1.1 6.7 1.9 1.8 0.8 3.3 1.9 4.4 3.2 1.1 1.3 1.9 2.9 2.4 4.7 0.5 1.8 0.7 3.9 0.7 6.4v1.4c0 2.7-0.4 5.1-1.1 7.1-0.7 2-2 3.7-3.7 5.1-1.8 1.4-4.1 2.4-7 3.1-2.9 0.7-6.5 1-10.8 1h-7.7c-3.4 0-7.7-0.1-13-0.2l1.5-8c2.3 0.1 4.3 0.1 6 0.1q2.6 0 4.8 0h4.2 4.2c2.8 0 5.1-0.1 6.8-0.4 1.8-0.3 3.2-0.7 4.2-1.4 1-0.7 1.7-1.5 2.1-2.6q0.6-1.7 0.6-4.2c0-1.5-0.1-2.7-0.3-3.7-0.2-1-0.6-1.9-1.2-2.6-0.6-0.7-1.5-1.3-2.6-1.7q-1.6-0.7-4.5-1.2l-11.5-1.9c-2.8-0.5-5.2-1.1-7-2-1.8-0.9-3.3-2-4.3-3.2-1.1-1.3-1.8-2.8-2.2-4.5-0.4-1.7-0.6-3.6-0.6-5.9v-1.6c0-2.4 0.4-4.6 1.1-6.6 0.8-2 2-3.6 3.7-5 1.7-1.4 4-2.5 6.8-3.2 2.8-0.7 6.3-1.1 10.4-1.1h4.3 4.1c1.4 0 3 0 4.6 0 1.7 0 3.7 0.1 6.1 0.1l-1.5 8c-4-0.1-7.5-0.2-10.3-0.2h-8.1c-2.5 0-4.6 0.1-6.2 0.4-1.6 0.3-2.9 0.7-3.8 1.4-0.9 0.7-1.6 1.5-1.9 2.6-0.3 1.1-0.5 2.4-0.5 4 0 1.4 0.1 2.5 0.3 3.5 0.2 1 0.6 1.8 1.1 2.5 0.6 0.7 1.4 1.2 2.5 1.7 1.1 0.5 2.5 0.8 4.3 1.1z"/><path fill-rule="evenodd" class="b" d="m285.5 102.3h-24.9l-6.3 17.4h-9l23.1-60.6h9.9l23.1 60.6h-9.5zm-22.2-7.7h19.4l-9.7-26.5z"/><path class="b" d="m337.1 59.1v52.6h30.7l-1.6 8h-38v-60.6z"/><path class="b" d="m393 59.1h8.9v60.6h-8.9z"/><path class="b" d="m470.2 59.1l-1.6 8h-31v17.4h30.4l-1.6 8h-28.8v19.2h32.6l-1.6 8h-39.9v-60.6z"/><path class="b" d="m503.2 59.1l31.2 45.7v-45.7h9v60.6h-8.1l-31.1-45.5v45.5h-8.9v-60.6z"/><path class="b" d="m620.5 59.1l-1.6 8h-20.2v52.6h-8.9v-52.6h-21.3l1.6-8z"/></svg>